<svg width="48" height="48" viewBox="0 0 48 48" fill="none" xmlns="http://www.w3.org/2000/svg">
<circle cx="24.5" cy="24" r="18" fill="#F6EDFA"/>
<path d="M33.7238 26.7744L34.2988 27.1064L40.7048 16.0113L40.1298 15.6793L33.7238 26.7744Z" fill="#663399"/>
<path d="M46.4043 25.8879H33.5923V26.5519H46.4043V25.8879Z" fill="#663399"/>
<path d="M33.8455 26.2609L40.2539 29.9609L40.5859 29.3859L34.1775 25.6859L33.8455 26.2609Z" fill="#663399"/>
<path d="M39.4124 16.6179L45.8208 20.3179L46.1528 19.7428L39.7444 16.0428L39.4124 16.6179Z" fill="#663399"/>
<path d="M33.8477 19.7404L34.1797 20.3154L40.5881 16.6154L40.2561 16.0404L33.8477 19.7404Z" fill="#663399"/>
<path d="M39.2966 16.0113L45.7026 27.1064L46.2777 26.7744L39.8717 15.6793L39.2966 16.0113Z" fill="#663399"/>
<path d="M34.7641 19.3H34.1001V26.7H34.7641V19.3Z" fill="#663399"/>
<path d="M45.9003 19.3H45.2363V26.7H45.9003V19.3Z" fill="#663399"/>
<path d="M39.8511 29.1777L40.1411 29.6799L45.7147 26.4619L45.4247 25.9596L39.8511 29.1777Z" fill="#663399"/>
<path d="M46.7802 26.9159C46.3962 27.5839 45.5402 27.8119 44.8722 27.4279C44.2042 27.0439 43.9762 26.1879 44.3602 25.5199C44.7442 24.8519 45.6002 24.6239 46.2682 25.0079C46.9402 25.3959 47.1682 26.2479 46.7802 26.9159Z" fill="#663399"/>
<path d="M35.6362 20.4799C35.2522 21.1479 34.3962 21.3759 33.7282 20.9919C33.0602 20.6079 32.8322 19.7519 33.2162 19.0839C33.6002 18.4159 34.4562 18.1879 35.1242 18.5719C35.7922 18.9599 36.0202 19.8119 35.6362 20.4799Z" fill="#663399"/>
<path d="M33.2201 26.9159C32.8361 26.2479 33.0641 25.3959 33.7321 25.0079C34.4001 24.6239 35.2521 24.8519 35.6401 25.5199C36.0241 26.1879 35.7961 27.0399 35.1281 27.4279C34.4561 27.8119 33.6041 27.5839 33.2201 26.9159Z" fill="#663399"/>
<path d="M44.3641 20.4799C43.9801 19.8119 44.2081 18.9599 44.8761 18.5719C45.5441 18.1879 46.3961 18.4159 46.7841 19.0839C47.1681 19.7519 46.9401 20.6039 46.2721 20.9919C45.6041 21.3759 44.7481 21.1479 44.3641 20.4799Z" fill="#663399"/>
<path d="M40 30.832C39.228 30.832 38.604 30.208 38.604 29.436C38.604 28.664 39.228 28.04 40 28.04C40.772 28.04 41.396 28.664 41.396 29.436C41.396 30.204 40.772 30.832 40 30.832Z" fill="#663399"/>
<path d="M40 17.96C39.228 17.96 38.604 17.336 38.604 16.564C38.604 15.792 39.228 15.168 40 15.168C40.772 15.168 41.396 15.792 41.396 16.564C41.396 17.336 40.772 17.96 40 17.96Z" fill="#663399"/>
<path fill-rule="evenodd" clip-rule="evenodd" d="M23.7906 28.6565C28.0824 36.0905 29.1613 43.5744 25.8013 45.5137C22.4413 47.453 16.5 42.7778 12.2082 35.3438C7.91646 27.9097 6.83758 20.4259 10.1976 18.4866C13.5576 16.5472 19.4989 21.2224 23.7906 28.6565ZM13.495 34.6008C17.41 41.3825 22.7324 45.5695 25.0581 44.2261C27.3852 42.8834 26.4193 36.1813 22.5035 29.3996C18.5885 22.6179 13.2661 18.4309 10.9404 19.7743C8.61323 21.117 9.57917 27.8192 13.495 34.6008Z" fill="#3FA9F5"/>
<path fill-rule="evenodd" clip-rule="evenodd" d="M17.9997 38.6874C9.41618 38.6874 2.396 35.8787 2.396 32.0001C2.396 28.1214 9.41618 25.3127 17.9997 25.3127C26.5832 25.3127 33.6034 28.1214 33.6034 32.0001C33.6034 35.8787 26.5832 38.6874 17.9997 38.6874ZM17.9995 26.7988C10.1679 26.7988 3.88184 29.3133 3.88184 32.0001C3.88184 34.6869 10.1679 37.2013 17.9995 37.2013C25.8311 37.2013 32.1171 34.6869 32.1171 32.0001C32.1171 29.3133 25.8311 26.7988 17.9995 26.7988Z" fill="#3FA9F5"/>
<path fill-rule="evenodd" clip-rule="evenodd" d="M25.8013 18.4866C29.1613 20.4266 28.0824 27.9097 23.7906 35.3438C19.4989 42.7778 13.5576 47.453 10.1976 45.5137C6.83758 43.5736 7.91646 36.0905 12.2082 28.6565C16.5 21.2224 22.4413 16.5472 25.8013 18.4866ZM25.0581 19.7743C22.731 18.4309 17.4108 22.6179 13.495 29.3996C9.57925 36.1813 8.61479 42.8834 10.9405 44.2261C13.2677 45.5695 18.5878 41.3825 22.5036 34.6008C26.4194 27.8192 27.3838 21.117 25.0581 19.7743Z" fill="#3FA9F5"/>
<rect x="15.0273" y="29.0278" width="5.94427" height="5.94427" rx="2.97214" fill="#663399"/>
<path d="M30.3405 12.7247L24.7827 15.8783V13.4226L28.2457 11.5115L30.3405 12.7247ZM30.7213 12.3793V5.78531L28.6883 6.96379V11.2027L30.7213 12.3793ZM18.7367 12.7247L24.2945 15.8783V13.4226L20.8297 11.5115L18.7367 12.7247ZM18.356 12.3793V5.78531L20.3889 6.96379V11.2027L18.356 12.3793ZM18.5946 5.35776L24.2945 2.12378V4.4972L20.6421 6.5125L20.613 6.52894L18.5946 5.35776ZM30.4826 5.35776L24.7827 2.12378V4.4972L28.4351 6.51067L28.4643 6.52711L30.4826 5.35776Z" fill="#90CDF9"/>
<path d="M24.2948 12.8635L20.8774 10.9779V7.24511L24.2948 9.22387V12.8635ZM24.783 12.8635L28.2004 10.9797V7.24511L24.783 9.22387V12.8635ZM21.1088 6.81391L24.5389 4.92285L27.9691 6.81391L24.5389 8.79998L21.1088 6.81391Z" fill="#3FA9F5"/>
</svg>
