<svg width="50" height="51" viewBox="0 0 50 51" fill="none" xmlns="http://www.w3.org/2000/svg">
<path d="M13.3765 6.35161C16.9755 4.37086 21.1469 3.68994 25.1889 4.42338C29.231 5.15683 32.8972 7.25989 35.5708 10.3788C38.2445 13.4978 39.7625 17.4423 39.8695 21.549C39.9766 25.6557 38.6661 29.6739 36.1585 32.9279" stroke="#DBF0FF" stroke-width="2" stroke-linecap="square"/>
<path d="M31.3079 16.8726C32.4851 19.0115 32.8897 21.4905 32.4539 23.8927C32.018 26.2949 30.7681 28.4737 28.9146 30.0627C27.061 31.6516 24.7167 32.5537 22.2762 32.6174C19.8356 32.681 17.4475 31.9021 15.5137 30.4119" stroke="#90CDF9" stroke-width="2" stroke-linecap="square"/>
<path d="M30.62 37.6671C27.0211 39.6415 22.8525 40.3176 18.8141 39.5817C14.7758 38.8458 11.1136 36.7428 8.44248 33.6258C5.7714 30.5088 4.25413 26.5677 4.14544 22.4643C4.09147 20.4271 4.38633 18.4114 5.00316 16.4999" stroke="#DBF0FF" stroke-width="2" stroke-linecap="square"/>
<path d="M11.5593 20.1042C11.9966 17.7042 13.2464 15.5277 15.0988 13.9403C16.9512 12.3529 19.2934 11.4512 21.7321 11.3866" stroke="#90CDF9" stroke-width="2" stroke-linecap="square"/>
<circle cx="22" cy="22" r="4" fill="#663399"/>
<circle cx="8" cy="10.5" r="1.5" fill="#DBF0FF"/>
<circle cx="27" cy="12.5" r="1.5" fill="#90CDF9"/>
<circle cx="12.25" cy="25.75" r="1.5" fill="#90CDF9"/>
<path d="M45 38.5H43.5V29C43.5 26.5716 41.4284 24.5 39 24.5H27C24.5716 24.5 22.5 26.5716 22.5 29V31V32.5H24H28.5V41C28.5 43.3957 30.4393 45.5 33 45.5H42C44.4284 45.5 46.5 43.4284 46.5 41V40V38.5H45Z" fill="#663399" stroke="white" stroke-width="3"/>
<path d="M24 29C24 27.4 25.4 26 27 26H30V31H24V29Z" fill="#3FA9F5" stroke="#663399" stroke-width="1.5"/>
<path d="M27 26C28.6 26 30 27.4 30 29V41C30 42.6 31.3 44 33 44C34.7 44 36 42.6 36 41H42V29C42 27.4 40.6 26 39 26H27Z" fill="white"/>
<path d="M27 26H39C40.6 26 42 27.4 42 29V41" stroke="#663399" stroke-width="1.5"/>
<path d="M33 44C31.3 44 30 42.6 30 41V29C30 27.4 28.6 26 27 26" stroke="#663399" stroke-width="1.5"/>
<path d="M33 44H42C43.6 44 45 42.6 45 41V40H36V41C36 42.6 34.6 44 33 44Z" fill="#DBF0FF" stroke="#663399" stroke-width="1.5"/>
<circle cx="38.2" cy="31" r="1" fill="#663399"/>
<circle cx="34" cy="31" r="1" fill="#663399"/>
<path d="M38.5 34.3999C38.5 35.5045 37.3807 36.3999 36 36.3999C34.6193 36.3999 33.5 35.5045 33.5 34.3999" stroke="#663399" stroke-width="1.25"/>
</svg>
