<svg width="48" height="48" viewBox="0 0 48 48" fill="none" xmlns="http://www.w3.org/2000/svg">
<path d="M23.9995 45.4595L41.4706 27.445C43.0047 25.9286 44.0176 23.9738 44.3658 21.857C44.7141 19.7403 44.3802 17.5688 43.4114 15.65C42.6785 14.2015 41.608 12.9459 40.288 11.9866C38.968 11.0272 37.4364 10.3916 35.8192 10.1322C34.202 9.87268 32.5457 9.99673 30.9865 10.4941C29.4274 10.9915 28.0101 11.8479 26.8514 12.9929L23.9995 15.8122L21.1476 12.9929C19.9893 11.8479 18.5724 10.9914 17.0136 10.494C15.4547 9.99663 13.7987 9.87257 12.1818 10.1321C10.565 10.3916 9.03365 11.0272 7.71408 11.9866C6.3945 12.946 5.32445 14.2016 4.59211 15.65C3.62132 17.5681 3.2859 19.7396 3.63342 21.8566C3.98094 23.9737 4.99377 25.9288 6.52829 27.445L23.9995 45.4595Z" fill="#F1DEFA"/>
<path d="M24.1057 14.4627L19.759 15.6274L20.0918 16.8693L23.0723 16.0707C23.1368 18.05 22.1867 19.9684 20.5523 21.0719L11.4979 15.8444C11.6607 13.4714 13.356 11.3533 15.7777 10.7044C17.6406 10.2052 19.5667 10.6874 21.005 11.8328L21.7202 10.776C20.029 9.43216 17.7425 8.84687 15.445 9.46249C12.216 10.3277 10.0994 13.3573 10.2317 16.583L20.6245 22.5833C23.4054 21.0395 24.9709 17.6917 24.1057 14.4627Z" fill="white"/>
<path d="M10.4614 18.1852C10.9273 19.9238 12.0596 21.4174 13.713 22.372C15.3664 23.3266 17.2881 23.5438 18.9647 23.0945L10.4614 18.1852Z" fill="white"/>
<path d="M14.9458 7.59958C10.1644 8.88074 7.30066 13.841 8.58181 18.6223C9.86297 23.4036 14.8232 26.2674 19.6045 24.9862C24.3858 23.7051 27.2496 18.7449 25.9685 13.9635C24.6873 9.18221 19.7271 6.31843 14.9458 7.59958ZM13.7295 22.4341C12.0761 21.4795 10.9272 19.9239 10.4779 18.2473L19.0433 23.14C17.288 23.5438 15.3829 23.3887 13.7295 22.4341ZM20.5457 22.5378L10.2316 16.5829C10.0994 13.3572 12.216 10.3276 15.4449 9.46244C17.7424 8.84682 20.029 9.43211 21.7201 10.7759L21.005 11.8327C19.5667 10.6874 17.6405 10.2052 15.7777 10.7043C13.356 11.3532 11.7228 13.4547 11.4979 15.8443L20.5523 21.0719C22.1866 19.9684 23.1368 18.05 23.0723 16.0706L20.0917 16.8693L19.759 15.6274L24.1056 14.4627C24.9708 17.6916 23.4054 21.0395 20.5457 22.5378Z" fill="#663399"/>
<path d="M23.7459 36.24C24.785 36.24 25.2525 36.7098 25.2618 37.7622C25.2623 37.8246 25.2872 37.8843 25.331 37.9287C25.3749 37.9731 25.4343 37.9987 25.4966 38H25.5018C25.5634 38.0002 25.6227 37.9766 25.6674 37.9341C25.7121 37.8917 25.7387 37.8337 25.7418 37.7722C25.7939 36.727 26.273 36.24 27.2499 36.24H27.2618C27.3254 36.2407 27.3867 36.216 27.4322 36.1715C27.4777 36.127 27.5036 36.0662 27.5043 36.0026C27.505 35.9389 27.4804 35.8776 27.4358 35.8321C27.3913 35.7866 27.3305 35.7607 27.2669 35.76C26.224 35.7379 25.7392 35.2563 25.7418 34.2445V34.2406C25.7419 34.2091 25.7358 34.1779 25.7239 34.1488C25.7119 34.1196 25.6943 34.0931 25.6721 34.0708C25.6499 34.0484 25.6235 34.0307 25.5945 34.0185C25.5654 34.0064 25.5342 34.0001 25.5027 34C25.4712 33.9999 25.44 34.006 25.4108 34.0179C25.3816 34.0298 25.3551 34.0474 25.3327 34.0696C25.3104 34.0918 25.2926 34.1182 25.2804 34.1473C25.2682 34.1763 25.2619 34.2075 25.2618 34.239C25.2582 35.2624 24.7744 35.7456 23.7382 35.76C23.6746 35.7605 23.6137 35.7862 23.5691 35.8315C23.5244 35.8769 23.4995 35.9381 23.5 36.0018C23.5005 36.0654 23.5262 36.1263 23.5715 36.171C23.6169 36.2156 23.6781 36.2405 23.7418 36.24H23.7459Z" fill="#663399" stroke="#663399" stroke-width="0.5"/>
<path d="M42.2619 18.76C41.2228 18.76 40.7553 18.2902 40.746 17.2378C40.7455 17.1754 40.7206 17.1157 40.6768 17.0713C40.6329 17.0269 40.5735 17.0013 40.5112 17L40.506 17C40.4444 16.9998 40.3851 17.0234 40.3404 17.0659C40.2957 17.1083 40.2691 17.1663 40.266 17.2278C40.2139 18.273 39.7348 18.76 38.7579 18.76L38.746 18.76C38.6824 18.7593 38.6211 18.784 38.5756 18.8285C38.5301 18.873 38.5042 18.9338 38.5035 18.9974C38.5028 19.0611 38.5274 19.1224 38.572 19.1679C38.6165 19.2134 38.6773 19.2393 38.7409 19.24C39.7838 19.2621 40.2686 19.7437 40.266 20.7555L40.266 20.7594C40.2659 20.7909 40.272 20.8221 40.284 20.8512C40.2959 20.8804 40.3135 20.9069 40.3357 20.9292C40.3579 20.9516 40.3843 20.9693 40.4133 20.9815C40.4424 20.9936 40.4736 20.9999 40.5051 21C40.5366 21.0001 40.5678 20.994 40.597 20.9821C40.6262 20.9702 40.6527 20.9526 40.6751 20.9304C40.6974 20.9082 40.7152 20.8818 40.7274 20.8527C40.7396 20.8237 40.7459 20.7925 40.746 20.761C40.7496 19.7376 41.2334 19.2544 42.2696 19.24C42.3332 19.2395 42.3941 19.2138 42.4388 19.1685C42.4834 19.1231 42.5083 19.0619 42.5078 18.9982C42.5073 18.9346 42.4816 18.8737 42.4363 18.829C42.3909 18.7844 42.3297 18.7595 42.266 18.76L42.2619 18.76Z" fill="#663399" stroke="#663399" stroke-width="0.5"/>
<path d="M33.0925 32.5759L26.5966 30.8354L31.3576 26.059L36.096 21.3669L37.9389 27.8225L39.6739 34.3394L33.0925 32.5759Z" fill="white" stroke="#3FA9F5" stroke-width="2"/>
<rect x="8.82582" y="29.8787" width="6" height="6" transform="rotate(-15 8.82582 29.8787)" fill="#DBF0FF" stroke="#3FA9F5" stroke-width="2"/>
<path d="M32.0226 13.5336L32.0226 13.5333C32.0144 12.6042 31.8032 12.1522 31.5704 11.9184C31.3404 11.6875 30.9003 11.48 29.9909 11.48H29.9851H29.9826V10.48M29.9826 10.48L29.9828 10.52C29.985 10.52 29.9872 10.5199 29.9894 10.5199C29.9899 10.5199 29.9904 10.5199 29.9909 10.5199C30.0539 10.5184 30.1155 10.5056 30.1729 10.4825C30.1132 10.4808 30.0526 10.48 29.9909 10.48H29.9889H29.9826ZM29.9826 10.48C29.8553 10.4809 29.7328 10.4313 29.6421 10.3419C29.5514 10.2525 29.5 10.1308 29.499 10.0035C29.4981 9.87622 29.5478 9.75376 29.6371 9.66308C29.7265 9.5724 29.8482 9.52094 29.9755 9.52C29.9779 9.51997 29.9802 9.51994 29.9826 9.5199C29.9853 9.51986 29.9881 9.51982 29.9909 9.51977C30.05 9.51881 30.1082 9.51709 30.1655 9.5146C30.1102 9.49333 30.0511 9.48152 29.9909 9.48015C29.9881 9.48009 29.9853 9.48004 29.9826 9.48003C29.9801 9.48001 29.9777 9.48001 29.9752 9.48003L29.9826 9.47997V9.48H29.9909C30.1475 9.48 30.3024 9.48471 30.4548 9.49472C32.0347 9.34404 32.8551 8.53388 32.9994 6.98159C32.9876 6.81954 32.9822 6.65476 32.9826 6.4878M32.9826 6.4878C32.9826 6.48735 32.9826 6.48689 32.9826 6.48643L32.9826 6.48643M32.9826 6.4878V6.48896H32.9826M32.9826 6.4878V6.48128C32.9826 6.483 32.9826 6.48472 32.9826 6.48643M32.9826 6.48643C32.9826 6.48728 32.9826 6.48812 32.9826 6.48896M32.9826 6.48643L33.0225 6.48653C33.0225 6.48734 33.0225 6.48815 33.0225 6.48896H32.9826" fill="white" stroke="white" stroke-width="2"/>
<path d="M29.9909 10.48C32.069 10.48 33.004 11.4195 33.0226 13.5245C33.0237 13.6493 33.0734 13.7687 33.1611 13.8574C33.2488 13.9462 33.3676 13.9973 33.4923 14H33.5026C33.6258 14.0003 33.7444 13.9531 33.8338 13.8683C33.9232 13.7834 33.9765 13.6674 33.9826 13.5443C34.0869 11.4541 35.045 10.48 36.9989 10.48H37.0226C37.1499 10.4814 37.2725 10.4321 37.3635 10.343C37.4544 10.254 37.5063 10.1324 37.5077 10.0051C37.509 9.87782 37.4598 9.75519 37.3707 9.66421C37.2816 9.57323 37.1601 9.52136 37.0328 9.52C34.947 9.47584 33.9774 8.51264 33.9826 6.48896V6.48128C33.9828 6.41828 33.9706 6.35584 33.9467 6.29755C33.9228 6.23925 33.8877 6.18624 33.8433 6.14154C33.7989 6.09684 33.7461 6.06133 33.688 6.03704C33.6298 6.01276 33.5675 6.00017 33.5045 6V6C33.4414 5.99975 33.379 6.01192 33.3206 6.03581C33.2623 6.05969 33.2092 6.09484 33.1645 6.13923C33.1197 6.18363 33.0842 6.2364 33.0598 6.29454C33.0355 6.35268 33.0228 6.41505 33.0226 6.47808V6.47808C33.0155 8.5248 32.0478 9.4912 29.9755 9.52C29.8482 9.52094 29.7265 9.5724 29.6371 9.66308C29.5478 9.75376 29.4981 9.87622 29.499 10.0035C29.5 10.1308 29.5514 10.2525 29.6421 10.3419C29.7328 10.4313 29.8553 10.4809 29.9826 10.48H29.9909Z" fill="#3FA9F5"/>
</svg>
